<svg xmlns="http://www.w3.org/2000/svg" viewBox="0 0 400 400">
  <path fill="#E535AB" d="M57.4676 302.66l-14.3756-8.3 160.15-277.3798 14.3756 8.3z"/>
  <path fill="#E535AB" d="M39.8 272.2h320.3v16.6H39.8z"/>
  <path fill="#E535AB" d="M206.3479 374.0257l-160.21-92.5 8.3-14.3756 160.21 92.5zM345.5223 132.9467l-160.21-92.5 8.3-14.3756 160.21 92.5z"/>
  <path fill="#E535AB" d="M54.4823 132.8835l-8.3-14.3756 160.21-92.5 8.3 14.3756z"/>
  <path fill="#E535AB" d="M342.5684 302.663l-160.15-277.3798 14.3756-8.3 160.15 277.3798zM52.5 107.5h16.6v185H52.5z"/>
  <path fill="#E535AB" d="M330.9 107.5h16.6v185h-16.6z"/>
  <path fill="#E535AB" d="M203.5219 366.9991l-7.25-12.557 139.3394-80.45 7.25 12.557z"/>
  <path fill="#E535AB" d="M369.5 297.9c-9.6 16.7-31 22.4-47.7 12.8-16.7-9.6-22.4-31-12.8-47.7 9.6-16.7 31-22.4 47.7-12.8 16.8 9.7 22.5 31 12.8 47.7M90.9 137c-9.6 16.7-31 22.4-47.7 12.8-16.7-9.6-22.4-31-12.8-47.7 9.6-16.7 31-22.4 47.7-12.8 16.7 9.7 22.4 31 12.8 47.7M30.5 297.9c-9.6-16.7-3.9-38 12.8-47.7 16.7-9.6 38-3.9 47.7 12.8 9.6 16.7 3.9 38-12.8 47.7-16.8 9.6-38.1 3.9-47.7-12.8M309.1 137c-9.6-16.7-3.9-38 12.8-47.7 16.7-9.6 38-3.9 47.7 12.8 9.6 16.7 3.9 38-12.8 47.7-16.7 9.6-38.1 3.9-47.7-12.8M200 395.8c-19.3 0-34.9-15.6-34.9-34.9 0-19.3 15.6-34.9 34.9-34.9 19.3 0 34.9 15.6 34.9 34.9 0 19.2-15.6 34.9-34.9 34.9M200 74c-19.3 0-34.9-15.6-34.9-34.9 0-19.3 15.6-34.9 34.9-34.9 19.3 0 34.9 15.6 34.9 34.9 0 19.3-15.6 34.9-34.9 34.9"/>
</svg>