<svg xmlns="http://www.w3.org/2000/svg" xmlns:xlink="http://www.w3.org/1999/xlink" viewBox="0 0 160 160">
  <defs>
    <linearGradient id="a">
      <stop offset="0"/>
      <stop offset="1" stop-color="#fff"/>
    </linearGradient>
    <linearGradient id="c" x1="-553.26971" x2="-666.11639" y1="525.90778" y2="413.0452" gradientTransform="matrix(.99884 0 0 .9987 689.00774 -388.84375)" gradientUnits="userSpaceOnUse" xlink:href="#a"/>
    <linearGradient id="b" x1="-666.11664" x2="-553.2699" y1="413.04492" y2="525.90759" gradientTransform="matrix(.99884 0 0 .9987 689.00774 -388.84375)" gradientUnits="userSpaceOnUse" xlink:href="#a"/>
  </defs>
  <path fill="url(#b)" fill-rule="evenodd" stroke-width=".5" d="M79.8646 119.09957c35.39768 48.25534 70.03957-13.46852 69.98868-50.58675C149.79308 24.62677 105.31237.09913 79.8356.09913 38.94318.09913 0 33.89521 0 80.13502c0 51.396 44.64038 79.86497 79.8356 79.86497-7.96447-1.14675-34.5062-6.83395-34.86292-67.96677-.23987-41.3466 13.48757-57.86551 34.80527-50.59905.47743.17707 23.51392 9.26451 23.51392 38.95053 0 29.55992-23.42727 38.71487-23.42727 38.71487z" color="#000" overflow="visible" style="marker:none"/>
  <path fill="url(#c)" fill-rule="evenodd" stroke-width=".5" d="M79.82327 41.40081c-23.39005-8.06188-52.04302 11.21581-52.04302 49.82881 0 63.04798 46.72055 68.77037 52.38416 68.77037C121.05683 159.99999 160 126.20391 160 79.9641 160 28.5681 115.35962.09913 80.16441.09913c9.74811-1.35 52.54087 10.54991 52.54087 69.0368 0 38.14117-31.95286 58.90496-52.73547 50.03344-.47743-.17707-23.51392-9.26451-23.51392-38.95053 0-29.55992 23.36738-38.81803 23.36738-38.81803z" color="#000" overflow="visible" style="marker:none"/>
</svg>