<svg
  width="30"
  height="30"
  viewBox="0 0 30 30"
  xmlns="http://www.w3.org/2000/svg"
>
  <path
    fill="hsl(240, 87%, 50%)"
    d="M7.77223 21.8253C7.77223 24.2503 7.9565 25.4628 8.32506 25.4628C8.47682 25.4628 8.67194 25.2542 8.91042 24.837C9.2573 24.133 9.65837 23.1943 10.1136 22.0209C12.0648 17.0404 13.0404 11.8905 13.0404 6.57106C13.0404 5.26728 12.9971 4.11995 12.9104 3.12908C12.8236 2.11213 12.7803 1.5515 12.7803 1.4472C12.7803 0.482399 13.0838 0 13.6908 0C14.0811 0 14.3737 0.41721 14.5689 1.25163C15.0241 3.33768 15.2518 5.68449 15.2518 8.29205C15.2518 14.6545 13.7125 21.0821 10.634 27.575C9.98357 28.9048 9.24646 29.5698 8.42262 29.5698C7.94567 29.5698 7.46871 29.309 6.99175 28.7875C5.62592 27.2751 4.94301 24.9804 4.94301 21.9035C4.94301 17.0013 5.87524 11.734 7.73971 6.1017C7.82643 5.84094 7.86979 5.63233 7.86979 5.47588C7.86979 5.08475 7.73971 4.88918 7.47955 4.88918C7.34947 4.88918 7.16519 4.99348 6.92671 5.20209C6.68823 5.38462 6.49311 5.60626 6.34136 5.86702C6.21128 6.1017 6.07036 6.38853 5.9186 6.72751C5.76684 7.06649 5.6476 7.31421 5.56088 7.47067C4.32513 9.50456 3.34954 10.7692 2.6341 11.2647C2.3089 11.4733 1.97287 11.5776 1.62599 11.5776C1.30079 11.5776 0.943073 11.3429 0.552836 10.8735C0.184279 10.4042 0 9.98696 0 9.6219C0 9.25685 0.0650396 8.86571 0.195119 8.4485C0.997273 6.33638 2.82922 4.22425 5.69096 2.11213C6.21128 1.72099 6.83999 1.52542 7.57711 1.52542C8.31422 1.52542 8.97546 1.90352 9.56081 2.65971C10.1462 3.38983 10.4388 4.30248 10.4388 5.39765C10.4388 6.02347 10.3846 6.55802 10.2762 7.0013C10.1678 7.41851 10.0161 8.00522 9.82097 8.76141C9.64753 9.5176 9.52829 10.013 9.46325 10.2477C9.41989 10.4824 9.3115 10.9518 9.13806 11.6558C8.9863 12.3338 8.8779 12.8162 8.81286 13.103C8.7695 13.3898 8.68278 13.8462 8.5527 14.472C8.42262 15.0978 8.32506 15.5932 8.26002 15.9583C8.21666 16.3233 8.15162 16.7927 8.0649 17.3664C7.99986 17.94 7.9565 18.4355 7.93482 18.8527C7.82643 20.1565 7.77223 21.1473 7.77223 21.8253Z"
  />
  <path
    fill="hsl(240, 87%, 50%)"
    d="M28.5691 2.19035C29.523 3.54629 30 4.35463 30 4.61539C30 4.87614 29.8916 5.16297 29.6748 5.47588C28.6558 6.85789 27.4635 8.25293 26.0976 9.66102C25.7941 9.97393 25.5665 10.1304 25.4147 10.1304C25.1979 10.1304 25.0895 9.93481 25.0895 9.54368C25.0895 9.12647 25.2304 8.57888 25.5123 7.90091C25.8158 7.22295 25.9675 6.83181 25.9675 6.72751C25.9675 6.62321 25.9242 6.57106 25.8375 6.57106C25.7724 6.57106 25.6749 6.59713 25.5448 6.64928C23.0516 7.71838 21.3172 9.40026 20.3416 11.6949C20.1248 12.2164 20.0164 12.6467 20.0164 12.9857C20.0164 13.6636 20.45 14.3025 21.3172 14.9022C21.4473 15.0065 22.0327 15.3846 23.0733 16.0365C25.1762 17.3924 26.4987 18.4876 27.0407 19.322C27.9079 20.6258 28.3415 21.9035 28.3415 23.1552C28.3415 23.6506 28.2223 24.1721 27.9838 24.7197C27.767 25.2412 27.4851 25.6323 27.1383 25.8931C23.4744 28.631 20.2115 30 17.3498 30C15.8322 30 15.0734 29.1656 15.0734 27.4967C15.0734 26.9492 15.2252 26.4276 15.5287 25.9322C15.0084 25.4889 14.7482 25.0196 14.7482 24.5241C14.7482 24.0026 15.0409 23.4811 15.6263 22.9596C17.0138 21.708 19.2468 21.0821 22.3253 21.0821C22.6505 21.0821 23.0408 21.2256 23.496 21.5124C23.9513 21.7731 24.3199 22.06 24.6017 22.3729C25.1437 22.0078 25.4147 21.6819 25.4147 21.395C25.4147 21.1082 25.2738 20.8214 24.992 20.5346C24.58 20.1695 23.8104 19.6871 22.683 19.0874C21.5774 18.4876 20.8728 18.0834 20.5693 17.8748C19.6587 17.249 18.9541 16.3494 18.4555 15.176C17.9785 14.0026 17.74 12.764 17.74 11.4602C17.74 10.1304 18.011 8.9309 18.553 7.8618C19.1167 6.76662 19.8972 5.81486 20.8945 5.00652C22.4121 3.78097 24.309 2.65971 26.5854 1.64277C26.8889 1.53846 27.1274 1.48631 27.3009 1.48631C27.7995 1.48631 28.2223 1.72099 28.5691 2.19035ZM22.3904 23.8592C22.1736 23.807 21.9243 23.781 21.6424 23.781C21.3606 23.781 20.8077 23.9374 19.9839 24.2503C19.1818 24.5632 18.7807 24.9153 18.7807 25.3064C18.7807 25.4628 18.8566 25.5411 19.0083 25.5411C19.5937 25.5411 20.721 24.9804 22.3904 23.8592Z"
  />
</svg>
